<svg width="750" height="500" viewBox="0 0 750 500" fill="none" xmlns="http://www.w3.org/2000/svg">
<g id="news 1">
<g class="background">
<g id="Group">
<g id="Group_2">
<path id="Vector" opacity="0.47" d="M625.31 404.84C635.82 380.24 645.32 362.05 633.28 330.75C624.3 307.41 648.7 288.19 658.14 266.46C666.54 247.12 669.31 223.87 667.26 202.8C664.46 174.04 651 145.22 627.69 124.63C591.37 92.55 536.42 84.46 488.26 91.88C468.09 94.99 448.09 100.49 427.43 98.76C397.31 96.23 370.77 78.92 343.35 66.22C306.02 48.94 263.22 39.64 223.53 47.16C178.53 55.69 141.63 87.89 137.23 130.62C135.24 149.98 155.51 184.09 149.11 202.44C142.62 221.05 95.2499 278.05 96.4099 321.41C97.7399 370.75 111.78 381.26 130.74 409.99C131.39 410.97 619.63 418.15 625.31 404.84Z" fill="#ECF1F7"/>
<path id="Vector_2" d="M593.22 398.07C601.14 386.8 606.66 373.75 609.4 360.1C614.47 334.87 606.34 313.35 604.31 288.61C602.39 265.19 610.71 245.49 615.32 223.19C619.43 203.34 618.06 180.85 612.9 161.34C605.86 134.7 589.65 110.04 566.29 95C529.9 71.57 481.36 74.33 441.16 90.45C424.32 97.2 408.01 106.18 389.98 108.46C363.68 111.77 338.08 100.44 312.46 93.64C277.58 84.38 239.3 83.7 206.39 98.31C169.08 114.88 142.55 152.28 145.65 193.47C147.05 212.13 154.24 230.55 151.7 249.09C149.12 267.9 137.95 283.63 132.04 301.34C122.59 329.65 123.18 373.55 144.1 397.09C144.83 397.88 592.68 398.85 593.22 398.07Z" fill="#ECF1F7"/>
<path id="Vector_3" opacity="0.81" d="M55.4799 233.44C36.7499 218.84 33.3999 191.82 47.9999 173.09C62.5999 154.36 99.7599 137.99 118.49 152.59C137.22 167.19 115.36 197.32 111.63 220.77C106.42 253.48 74.2199 248.03 55.4799 233.44Z" fill="#ECF1F7"/>
<path id="Vector_4" opacity="0.47" d="M688.13 297.53C703.85 302.39 712.66 319.07 707.8 334.8C702.94 350.52 682.88 370.25 667.16 365.4C651.44 360.54 658.2 335.65 654.86 319.53C650.2 297.05 672.41 292.67 688.13 297.53Z" fill="#ECF1F7"/>
<path id="Vector_5" opacity="0.47" d="M657.72 87.57C653.54 101.1 639.17 108.69 625.64 104.5C612.11 100.32 595.12 83.05 599.3 69.51C603.48 55.98 624.91 61.8 638.78 58.92C658.13 54.92 661.9 74.03 657.72 87.57Z" fill="#ECF1F7"/>
<path id="Vector_6" opacity="0.79" d="M372.4 442C508.765 442 619.31 427.682 619.31 410.02C619.31 392.358 508.765 378.04 372.4 378.04C236.035 378.04 125.49 392.358 125.49 410.02C125.49 427.682 236.035 442 372.4 442Z" fill="#2D3A21"/>
</g>
</g>
<path id="Vector_7" opacity="0.58" d="M687.5 268C689.985 268 692 265.985 692 263.5C692 261.015 689.985 259 687.5 259C685.015 259 683 261.015 683 263.5C683 265.985 685.015 268 687.5 268Z" fill="#2D3A21"/>
<path id="Vector_8" opacity="0.58" d="M655.5 392C657.433 392 659 390.433 659 388.5C659 386.567 657.433 385 655.5 385C653.567 385 652 386.567 652 388.5C652 390.433 653.567 392 655.5 392Z" fill="#FFA23B"/>
<path id="Vector_9" opacity="0.58" d="M112.5 112C114.985 112 117 109.985 117 107.5C117 105.015 114.985 103 112.5 103C110.015 103 108 105.015 108 107.5C108 109.985 110.015 112 112.5 112Z" fill="#FFA23B"/>
<path id="Vector_10" opacity="0.58" d="M78.5 280C80.433 280 82 278.433 82 276.5C82 274.567 80.433 273 78.5 273C76.567 273 75 274.567 75 276.5C75 278.433 76.567 280 78.5 280Z" fill="#2D3A21"/>
<path id="Vector_11" opacity="0.58" d="M83.5 131C84.3284 131 85 130.328 85 129.5C85 128.672 84.3284 128 83.5 128C82.6716 128 82 128.672 82 129.5C82 130.328 82.6716 131 83.5 131Z" fill="#2D3A21"/>
<path id="Vector_12" opacity="0.58" d="M455.46 62.22C454.84 65.14 451.97 67 449.05 66.38C446.13 65.76 444.27 62.89 444.89 59.97C445.51 57.05 448.38 55.19 451.3 55.81C454.22 56.43 456.08 59.3 455.46 62.22Z" fill="#FFA23B"/>
<path id="Vector_13" opacity="0.58" d="M412.36 80.03C412.15 81 411.2 81.62 410.22 81.42C409.25 81.21 408.63 80.26 408.83 79.28C409.03 78.3 409.99 77.69 410.97 77.89C411.95 78.1 412.57 79.05 412.36 80.03Z" fill="#2D3A21"/>
<g id="Group_3" opacity="0.35">
<path id="Vector_14" d="M540 238C506.92 238 480 211.08 480 178C480 144.92 506.92 118 540 118C573.08 118 600 144.92 600 178C600 211.08 573.08 238 540 238ZM540 119C507.47 119 481 145.47 481 178C481 210.53 507.47 237 540 237C572.53 237 599 210.53 599 178C599 145.47 572.53 119 540 119Z" fill="white"/>
<path id="Vector_15" d="M540 224C506.92 224 480 203.36 480 178C480 152.64 506.92 132 540 132C573.08 132 600 152.64 600 178C600 203.36 573.08 224 540 224ZM540 133C507.47 133 481 153.19 481 178C481 202.81 507.47 223 540 223C572.53 223 599 202.81 599 178C599 153.19 572.53 133 540 133Z" fill="white"/>
<path id="Vector_16" d="M540 212.5C506.92 212.5 480 197.02 480 178C480 158.98 506.92 143.5 540 143.5C573.08 143.5 600 158.98 600 178C600 197.02 573.08 212.5 540 212.5ZM540 144.5C507.47 144.5 481 159.53 481 178C481 196.47 507.47 211.5 540 211.5C572.53 211.5 599 196.47 599 178C599 159.53 572.53 144.5 540 144.5Z" fill="white"/>
<path id="Vector_17" d="M540 204C506.92 204 480 192.34 480 178C480 163.66 506.92 152 540 152C573.08 152 600 163.66 600 178C600 192.34 573.08 204 540 204ZM540 153C507.47 153 481 164.21 481 178C481 191.79 507.47 203 540 203C572.53 203 599 191.79 599 178C599 164.21 572.53 153 540 153Z" fill="white"/>
<path id="Vector_18" d="M540 188C510.51 188 480 184.26 480 178C480 171.74 510.51 168 540 168C569.49 168 600 171.74 600 178C600 184.26 569.49 188 540 188ZM540 169C504.71 169 481 173.65 481 178C481 182.35 504.71 187 540 187C575.29 187 599 182.35 599 178C599 173.65 575.29 169 540 169Z" fill="white"/>
<path id="Vector_19" d="M540 238C514.64 238 494 211.08 494 178C494 144.92 514.64 118 540 118C565.36 118 586 144.92 586 178C586 211.08 565.36 238 540 238ZM540 119C515.19 119 495 145.47 495 178C495 210.53 515.19 237 540 237C564.81 237 585 210.53 585 178C585 145.47 564.81 119 540 119Z" fill="white"/>
<path id="Vector_20" d="M540 238C520.98 238 505.5 211.08 505.5 178C505.5 144.92 520.98 118 540 118C559.02 118 574.5 144.92 574.5 178C574.5 211.08 559.02 238 540 238ZM540 119C521.53 119 506.5 145.47 506.5 178C506.5 210.53 521.53 237 540 237C558.47 237 573.5 210.53 573.5 178C573.5 145.47 558.47 119 540 119Z" fill="white"/>
<path id="Vector_21" d="M540 238C525.66 238 514 211.08 514 178C514 144.92 525.66 118 540 118C554.34 118 566 144.92 566 178C566 211.08 554.34 238 540 238ZM540 119C526.21 119 515 145.47 515 178C515 210.53 526.21 237 540 237C553.79 237 565 210.53 565 178C565 145.47 553.79 119 540 119Z" fill="white"/>
<path id="Vector_22" d="M540 238C533.74 238 530 207.49 530 178C530 148.51 533.74 118 540 118C546.26 118 550 148.51 550 178C550 207.49 546.26 238 540 238ZM540 119C535.65 119 531 142.71 531 178C531 213.29 535.65 237 540 237C544.35 237 549 213.29 549 178C549 142.71 544.35 119 540 119Z" fill="white"/>
</g>
<g id="Group_4" opacity="0.35">
<path id="Vector_23" d="M201 385C167.92 385 141 358.08 141 325C141 291.92 167.92 265 201 265C234.08 265 261 291.92 261 325C261 358.08 234.08 385 201 385ZM201 266C168.47 266 142 292.47 142 325C142 357.53 168.47 384 201 384C233.53 384 260 357.53 260 325C260 292.47 233.53 266 201 266Z" fill="white"/>
<path id="Vector_24" d="M201 371C167.92 371 141 350.36 141 325C141 299.64 167.92 279 201 279C234.08 279 261 299.64 261 325C261 350.36 234.08 371 201 371ZM201 280C168.47 280 142 300.19 142 325C142 349.81 168.47 370 201 370C233.53 370 260 349.81 260 325C260 300.19 233.53 280 201 280Z" fill="white"/>
<path id="Vector_25" d="M201 359.5C167.92 359.5 141 344.02 141 325C141 305.98 167.92 290.5 201 290.5C234.08 290.5 261 305.98 261 325C261 344.02 234.08 359.5 201 359.5ZM201 291.5C168.47 291.5 142 306.53 142 325C142 343.47 168.47 358.5 201 358.5C233.53 358.5 260 343.47 260 325C260 306.53 233.53 291.5 201 291.5Z" fill="white"/>
<path id="Vector_26" d="M201 351C167.92 351 141 339.34 141 325C141 310.66 167.92 299 201 299C234.08 299 261 310.66 261 325C261 339.34 234.08 351 201 351ZM201 300C168.47 300 142 311.21 142 325C142 338.79 168.47 350 201 350C233.53 350 260 338.79 260 325C260 311.21 233.53 300 201 300Z" fill="white"/>
<path id="Vector_27" d="M201 335C171.51 335 141 331.26 141 325C141 318.74 171.51 315 201 315C230.49 315 261 318.74 261 325C261 331.26 230.49 335 201 335ZM201 316C165.71 316 142 320.65 142 325C142 329.35 165.71 334 201 334C236.29 334 260 329.35 260 325C260 320.65 236.29 316 201 316Z" fill="white"/>
<path id="Vector_28" d="M201 385C175.64 385 155 358.08 155 325C155 291.92 175.64 265 201 265C226.36 265 247 291.92 247 325C247 358.08 226.36 385 201 385ZM201 266C176.19 266 156 292.47 156 325C156 357.53 176.19 384 201 384C225.81 384 246 357.53 246 325C246 292.47 225.81 266 201 266Z" fill="white"/>
<path id="Vector_29" d="M201 385C181.98 385 166.5 358.08 166.5 325C166.5 291.92 181.98 265 201 265C220.02 265 235.5 291.92 235.5 325C235.5 358.08 220.02 385 201 385ZM201 266C182.53 266 167.5 292.47 167.5 325C167.5 357.53 182.53 384 201 384C219.47 384 234.5 357.53 234.5 325C234.5 292.47 219.47 266 201 266Z" fill="white"/>
<path id="Vector_30" d="M201 385C186.66 385 175 358.08 175 325C175 291.92 186.66 265 201 265C215.34 265 227 291.92 227 325C227 358.08 215.34 385 201 385ZM201 266C187.21 266 176 292.47 176 325C176 357.53 187.21 384 201 384C214.79 384 226 357.53 226 325C226 292.47 214.79 266 201 266Z" fill="white"/>
<path id="Vector_31" d="M201 385C194.74 385 191 354.49 191 325C191 295.51 194.74 265 201 265C207.26 265 211 295.51 211 325C211 354.49 207.26 385 201 385ZM201 266C196.65 266 192 289.71 192 325C192 360.29 196.65 384 201 384C205.35 384 210 360.29 210 325C210 289.71 205.35 266 201 266Z" fill="white"/>
</g>
<g id="Group_5">
<path id="Vector_32" d="M85.7702 215.32C84.8402 215.32 83.9402 214.95 83.2402 214.25L75.1202 206.13C74.8202 205.83 74.4102 205.66 73.9802 205.66H64.0002C61.2402 205.66 58.9902 203.41 58.9902 200.65V182C58.9902 179.24 61.2402 176.99 64.0002 176.99H95.9902C98.7502 176.99 101 179.24 101 182V200.65C101 203.41 98.7502 205.66 95.9902 205.66H91.0102C90.1202 205.66 89.4002 206.38 89.4002 207.27V211.7C89.4002 213.19 88.5502 214.46 87.1702 215.03C86.7202 215.23 86.2402 215.32 85.7702 215.32ZM64.0102 179C62.3502 179 61.0002 180.35 61.0002 182.01V200.66C61.0002 202.32 62.3502 203.67 64.0102 203.67H73.9902C74.9502 203.67 75.8602 204.05 76.5402 204.73L84.6602 212.85C85.1402 213.33 85.7902 213.46 86.4102 213.2C87.0302 212.94 87.4002 212.39 87.4002 211.71V207.28C87.4002 205.29 89.0202 203.67 91.0102 203.67H95.9902C97.6502 203.67 99.0002 202.32 99.0002 200.66V182.01C99.0002 180.35 97.6502 179 95.9902 179H64.0102V179Z" fill="white"/>
<g id="Group_6">
<path id="Vector_33" d="M70.5 194.5C68.85 194.5 67.5 193.15 67.5 191.5C67.5 189.85 68.85 188.5 70.5 188.5C72.15 188.5 73.5 189.85 73.5 191.5C73.5 193.15 72.15 194.5 70.5 194.5ZM70.5 189.5C69.4 189.5 68.5 190.4 68.5 191.5C68.5 192.6 69.4 193.5 70.5 193.5C71.6 193.5 72.5 192.6 72.5 191.5C72.5 190.4 71.6 189.5 70.5 189.5Z" fill="white"/>
<path id="Vector_34" d="M80 195C78.35 195 77 193.65 77 192C77 190.35 78.35 189 80 189C81.65 189 83 190.35 83 192C83 193.65 81.65 195 80 195ZM80 190C78.9 190 78 190.9 78 192C78 193.1 78.9 194 80 194C81.1 194 82 193.1 82 192C82 190.9 81.1 190 80 190Z" fill="white"/>
<path id="Vector_35" d="M89 195C87.35 195 86 193.65 86 192C86 190.35 87.35 189 89 189C90.65 189 92 190.35 92 192C92 193.65 90.65 195 89 195ZM89 190C87.9 190 87 190.9 87 192C87 193.1 87.9 194 89 194C90.1 194 91 193.1 91 192C91 190.9 90.1 190 89 190Z" fill="white"/>
</g>
</g>
<g id="Group_7">
<path id="Vector_36" d="M677.09 346.32C676.7 346.32 676.3 346.24 675.91 346.08C674.75 345.6 674.04 344.53 674.04 343.28V339.83C674.04 339.26 673.58 338.8 673.01 338.8H669.13C666.86 338.8 665.01 336.95 665.01 334.68V320.14C665.01 317.87 666.86 316.02 669.13 316.02H694.07C696.34 316.02 698.2 317.87 698.2 320.14V334.68C698.2 336.95 696.35 338.8 694.07 338.8H686.29C686.02 338.8 685.75 338.91 685.56 339.1L679.23 345.43C678.63 346.01 677.88 346.32 677.09 346.32ZM669.12 318C667.95 318 667 318.95 667 320.12V334.66C667 335.83 667.95 336.78 669.12 336.78H673C674.67 336.78 676.03 338.14 676.03 339.81V343.26C676.03 343.9 676.52 344.15 676.67 344.22C676.82 344.28 677.34 344.45 677.8 344L684.13 337.67C684.69 337.11 685.48 336.78 686.28 336.78H694.06C695.23 336.78 696.19 335.83 696.19 334.66V320.12C696.19 318.95 695.24 318 694.06 318H669.12V318Z" fill="white"/>
<g id="Group_8">
<path id="Vector_37" d="M689 329.98C687.65 329.98 686.55 328.88 686.55 327.53C686.55 326.18 687.65 325.08 689 325.08C690.35 325.08 691.45 326.18 691.45 327.53C691.45 328.88 690.35 329.98 689 329.98ZM689 326.08C688.2 326.08 687.55 326.73 687.55 327.53C687.55 328.33 688.2 328.98 689 328.98C689.8 328.98 690.45 328.33 690.45 327.53C690.45 326.73 689.8 326.08 689 326.08Z" fill="white"/>
<path id="Vector_38" d="M681.59 330.37C680.24 330.37 679.14 329.27 679.14 327.92C679.14 326.57 680.24 325.47 681.59 325.47C682.94 325.47 684.04 326.57 684.04 327.92C684.04 329.27 682.94 330.37 681.59 330.37ZM681.59 326.47C680.79 326.47 680.14 327.12 680.14 327.92C680.14 328.72 680.79 329.37 681.59 329.37C682.39 329.37 683.04 328.72 683.04 327.92C683.04 327.12 682.39 326.47 681.59 326.47Z" fill="white"/>
<path id="Vector_39" d="M674.58 330.37C673.23 330.37 672.13 329.27 672.13 327.92C672.13 326.57 673.23 325.47 674.58 325.47C675.93 325.47 677.03 326.57 677.03 327.92C677.03 329.27 675.93 330.37 674.58 330.37ZM674.58 326.47C673.78 326.47 673.13 327.12 673.13 327.92C673.13 328.72 673.78 329.37 674.58 329.37C675.38 329.37 676.03 328.72 676.03 327.92C676.03 327.12 675.38 326.47 674.58 326.47Z" fill="white"/>
</g>
</g>
<g id="Group_9">
<path id="Vector_40" d="M634.85 93.31C634.17 93.31 633.51 93.05 633.01 92.55L628.02 87.56C627.91 87.45 627.75 87.38 627.59 87.38H621.46C619.55 87.38 618 85.83 618 83.92V72.46C618 70.55 619.55 69 621.46 69H641.11C643.02 69 644.57 70.55 644.57 72.46V83.92C644.57 85.83 643.02 87.38 641.11 87.38H638.05C637.72 87.38 637.45 87.65 637.45 87.98V90.7C637.45 91.76 636.82 92.7 635.84 93.1C635.52 93.25 635.19 93.31 634.85 93.31ZM621.46 71C620.65 71 620 71.66 620 72.46V83.92C620 84.73 620.66 85.38 621.46 85.38H627.59C628.29 85.38 628.94 85.65 629.43 86.14L634.42 91.13C634.68 91.39 634.97 91.31 635.08 91.26C635.19 91.21 635.45 91.07 635.45 90.7V87.98C635.45 86.54 636.62 85.38 638.05 85.38H641.11C641.92 85.38 642.57 84.72 642.57 83.92V72.46C642.57 71.65 641.91 71 641.11 71H621.46Z" fill="white"/>
<g id="Group_10">
<path id="Vector_41" d="M625.45 80.33C624.33 80.33 623.41 79.42 623.41 78.29C623.41 77.17 624.32 76.25 625.45 76.25C626.57 76.25 627.49 77.16 627.49 78.29C627.49 79.42 626.58 80.33 625.45 80.33ZM625.45 77.26C624.88 77.26 624.41 77.72 624.41 78.3C624.41 78.87 624.87 79.34 625.45 79.34C626.02 79.34 626.49 78.88 626.49 78.3C626.49 77.72 626.02 77.26 625.45 77.26Z" fill="white"/>
<path id="Vector_42" d="M631.29 80.6401C630.17 80.6401 629.25 79.7301 629.25 78.6001C629.25 77.4801 630.16 76.5601 631.29 76.5601C632.41 76.5601 633.33 77.4701 633.33 78.6001C633.33 79.7301 632.41 80.6401 631.29 80.6401ZM631.29 77.5701C630.72 77.5701 630.25 78.0301 630.25 78.6101C630.25 79.1801 630.71 79.6501 631.29 79.6501C631.86 79.6501 632.33 79.1901 632.33 78.6101C632.33 78.0301 631.86 77.5701 631.29 77.5701Z" fill="white"/>
<path id="Vector_43" d="M636.82 80.6401C635.7 80.6401 634.78 79.7301 634.78 78.6001C634.78 77.4801 635.69 76.5601 636.82 76.5601C637.95 76.5601 638.86 77.4701 638.86 78.6001C638.86 79.7301 637.94 80.6401 636.82 80.6401ZM636.82 77.5701C636.25 77.5701 635.78 78.0301 635.78 78.6101C635.78 79.1801 636.24 79.6501 636.82 79.6501C637.4 79.6501 637.86 79.1901 637.86 78.6101C637.86 78.0301 637.39 77.5701 636.82 77.5701Z" fill="white"/>
</g>
</g>
</g>
<g class="news">
<g id="Group_11">
<g id="Group_12">
<path id="Vector_44" d="M455.75 413.75L206.58 413.45C205.7 413.45 204.99 412.74 204.99 411.86L205.35 116.6C205.35 115.72 206.06 115.01 206.94 115.01L456.11 115.31C456.99 115.31 457.7 116.02 457.7 116.9L457.34 412.16C457.34 413.04 456.63 413.75 455.75 413.75Z" fill="white"/>
<path id="Vector_45" opacity="0.44" d="M455.75 413.75L206.58 413.45C205.7 413.45 204.99 412.74 204.99 411.86L205.35 116.6C205.35 115.72 206.06 115.01 206.94 115.01L456.11 115.31C456.99 115.31 457.7 116.02 457.7 116.9L457.34 412.16C457.34 413.04 456.63 413.75 455.75 413.75Z" fill="#2D3A21"/>
</g>
<g id="Group_13">
<path id="Vector_46" d="M451.75 417.75L202.58 417.45C201.7 417.45 200.99 416.74 200.99 415.86L201.35 120.6C201.35 119.72 202.06 119.01 202.94 119.01L452.11 119.31C452.99 119.31 453.7 120.02 453.7 120.9L453.34 416.16C453.34 417.04 452.63 417.75 451.75 417.75Z" fill="white"/>
<path id="Vector_47" opacity="0.29" d="M451.75 417.75L202.58 417.45C201.7 417.45 200.99 416.74 200.99 415.86L201.35 120.6C201.35 119.72 202.06 119.01 202.94 119.01L452.11 119.31C452.99 119.31 453.7 120.02 453.7 120.9L453.34 416.16C453.34 417.04 452.63 417.75 451.75 417.75Z" fill="#2D3A21"/>
</g>
<g id="Group_14">
<path id="Vector_48" d="M446.47 418.53L199.95 418.23C199.07 418.23 198.36 417.52 198.36 416.64L198.71 125.09C198.71 124.21 199.42 123.5 200.3 123.5L446.82 123.8C447.7 123.8 448.41 124.51 448.41 125.39L448.06 416.94C448.06 417.82 447.34 418.54 446.47 418.53Z" fill="white"/>
<path id="Vector_49" opacity="0.18" d="M446.47 418.53L199.95 418.23C199.07 418.23 198.36 417.52 198.36 416.64L198.71 125.09C198.71 124.21 199.42 123.5 200.3 123.5L446.82 123.8C447.7 123.8 448.41 124.51 448.41 125.39L448.06 416.94C448.06 417.82 447.34 418.54 446.47 418.53Z" fill="#2D3A21"/>
</g>
<path id="Vector_50" d="M441.16 419.85L197.28 419.56C196.4 419.56 195.69 418.85 195.69 417.97L196.04 130.39C196.04 129.51 196.75 128.8 197.63 128.8L441.51 129.09C442.39 129.09 443.1 129.8 443.1 130.68L442.75 418.26C442.76 419.14 442.04 419.85 441.16 419.85Z" fill="white"/>
<g id="Group_15">
<g id="Group_16">
<path id="Vector_51" opacity="0.6" d="M353.56 251.93L206.85 251.75C206.3 251.75 205.85 251.3 205.85 250.75L205.91 201.23C205.91 200.68 206.36 200.23 206.91 200.23L353.62 200.41C354.17 200.41 354.62 200.86 354.62 201.41L354.56 250.93C354.56 251.48 354.11 251.93 353.56 251.93Z" fill="#FFA23B"/>
<path id="Vector_52" opacity="0.6" d="M431.62 311.59L208.47 311.32C207.69 311.32 207.05 310.68 207.06 309.9L207.12 261.21C207.12 260.43 207.76 259.79 208.54 259.8L431.69 260.07C432.47 260.07 433.11 260.71 433.1 261.49L433.04 310.18C433.04 310.96 432.41 311.59 431.62 311.59Z" fill="#2D3A21"/>
<path id="Vector_53" opacity="0.6" d="M432.38 328.55H207.78V332.51H432.38V328.55Z" fill="#2D3A21"/>
<path id="Vector_54" opacity="0.6" d="M432.38 317.98H207.78V321.94H432.38V317.98Z" fill="#2D3A21"/>
<path id="Vector_55" opacity="0.6" d="M398.84 339.11H207.78V343.07H398.84V339.11Z" fill="#2D3A21"/>
<path id="Vector_56" opacity="0.6" d="M274.95 403.4L206.7 403.32C206.15 403.32 205.7 402.87 205.7 402.32L205.76 352.8C205.76 352.25 206.21 351.8 206.76 351.8L275.01 351.88C275.56 351.88 276.01 352.33 276.01 352.88L275.95 402.4C275.95 402.95 275.5 403.4 274.95 403.4Z" fill="#2D3A21"/>
<path id="Vector_57" opacity="0.6" d="M354.12 403.5L285.87 403.42C285.32 403.42 284.87 402.97 284.87 402.42L284.93 352.9C284.93 352.35 285.38 351.9 285.93 351.9L354.18 351.98C354.73 351.98 355.18 352.43 355.18 352.98L355.12 402.5C355.12 403.05 354.67 403.5 354.12 403.5Z" fill="#2D3A21"/>
<path id="Vector_58" opacity="0.6" d="M432.72 403.59L364.47 403.51C363.92 403.51 363.47 403.06 363.47 402.51L363.53 352.99C363.53 352.44 363.98 351.99 364.53 351.99L432.78 352.07C433.33 352.07 433.78 352.52 433.78 353.07L433.72 402.59C433.72 403.14 433.28 403.59 432.72 403.59Z" fill="#FFA23B"/>
<path id="Vector_59" opacity="0.6" d="M430.72 206.36L362.81 206.28C362.16 206.28 361.64 205.75 361.64 205.11C361.64 204.46 362.17 203.94 362.81 203.94L430.72 204.02C431.37 204.02 431.89 204.55 431.89 205.19C431.89 205.83 431.37 206.36 430.72 206.36Z" fill="#2D3A21"/>
<path id="Vector_60" opacity="0.6" d="M430.71 213.38L362.8 213.3C362.15 213.3 361.63 212.77 361.63 212.13C361.63 211.48 362.16 210.96 362.8 210.96L430.71 211.04C431.36 211.04 431.88 211.57 431.88 212.21C431.88 212.86 431.36 213.38 430.71 213.38Z" fill="#2D3A21"/>
<path id="Vector_61" opacity="0.6" d="M430.7 220.41L362.79 220.33C362.14 220.33 361.62 219.8 361.62 219.16C361.62 218.51 362.15 217.99 362.79 217.99L430.7 218.07C431.35 218.07 431.87 218.6 431.87 219.24C431.87 219.88 431.35 220.41 430.7 220.41Z" fill="#2D3A21"/>
<path id="Vector_62" opacity="0.6" d="M430.69 227.43L362.78 227.35C362.13 227.35 361.61 226.82 361.61 226.18C361.61 225.53 362.14 225.01 362.78 225.01L430.69 225.09C431.34 225.09 431.86 225.62 431.86 226.26C431.87 226.91 431.34 227.43 430.69 227.43Z" fill="#2D3A21"/>
<path id="Vector_63" opacity="0.6" d="M430.69 234.46L362.78 234.38C362.13 234.38 361.61 233.85 361.61 233.21C361.61 232.56 362.14 232.04 362.78 232.04L430.69 232.12C431.34 232.12 431.86 232.65 431.86 233.29C431.86 233.94 431.33 234.46 430.69 234.46Z" fill="#2D3A21"/>
<path id="Vector_64" opacity="0.6" d="M430.68 241.48L362.77 241.4C362.12 241.4 361.6 240.87 361.6 240.23C361.6 239.58 362.13 239.06 362.77 239.06L430.68 239.14C431.33 239.14 431.85 239.67 431.85 240.31C431.85 240.96 431.32 241.48 430.68 241.48Z" fill="#2D3A21"/>
<path id="Vector_65" opacity="0.6" d="M430.67 248.51L362.76 248.43C362.11 248.43 361.59 247.9 361.59 247.26C361.59 246.61 362.12 246.09 362.76 246.09L430.67 246.17C431.32 246.17 431.84 246.7 431.84 247.34C431.84 247.99 431.32 248.51 430.67 248.51Z" fill="#2D3A21"/>
<path id="Vector_66" d="M379.56 191.07L206.75 190.86C206.29 190.86 205.92 190.49 205.92 190.03V187C205.92 186.54 206.29 186.17 206.75 186.17L379.56 186.38C380.02 186.38 380.39 186.75 380.39 187.21V190.24C380.39 190.7 380.02 191.07 379.56 191.07Z" fill="#2D3A21"/>
<path id="WORLD NEWS" d="M217.927 172.343L211.265 152.334L214.208 152.337L220.329 170.803L218.843 170.801L225.237 152.351L227.866 152.354L234.073 170.82L232.644 170.818L238.895 152.367L241.61 152.37L234.899 172.363L231.899 172.36L226.091 155.238L226.862 155.238L220.984 172.347L217.927 172.343ZM253.886 172.615C252.362 172.613 250.944 172.354 249.63 171.838C248.335 171.323 247.212 170.607 246.261 169.691C245.31 168.757 244.568 167.67 244.036 166.431C243.504 165.193 243.239 163.84 243.241 162.373C243.243 160.906 243.511 159.554 244.046 158.317C244.581 157.079 245.325 156.004 246.279 155.09C247.232 154.158 248.357 153.436 249.653 152.923C250.949 152.41 252.368 152.155 253.911 152.157C255.435 152.159 256.835 152.417 258.11 152.933C259.405 153.43 260.528 154.146 261.479 155.08C262.45 155.996 263.191 157.073 263.704 158.312C264.236 159.551 264.501 160.913 264.499 162.399C264.498 163.884 264.229 165.246 263.694 166.484C263.179 167.721 262.434 168.806 261.462 169.738C260.508 170.651 259.383 171.364 258.087 171.877C256.811 172.371 255.41 172.617 253.886 172.615ZM253.889 170.072C254.994 170.073 256.014 169.884 256.947 169.504C257.9 169.124 258.72 168.592 259.407 167.907C260.112 167.203 260.656 166.385 261.038 165.452C261.439 164.519 261.641 163.5 261.642 162.395C261.643 161.29 261.445 160.271 261.046 159.337C260.666 158.403 260.124 157.593 259.42 156.906C258.735 156.201 257.917 155.657 256.965 155.275C256.032 154.893 255.013 154.701 253.908 154.7C252.784 154.698 251.746 154.888 250.793 155.267C249.859 155.647 249.039 156.189 248.334 156.893C247.628 157.578 247.075 158.387 246.673 159.32C246.291 160.253 246.1 161.272 246.098 162.376C246.097 163.481 246.286 164.501 246.666 165.434C247.065 166.368 247.616 167.188 248.32 167.894C249.024 168.58 249.843 169.115 250.776 169.497C251.728 169.879 252.766 170.071 253.889 170.072ZM268.854 172.405L268.879 152.403L276.679 152.413C278.432 152.415 279.927 152.693 281.164 153.247C282.402 153.801 283.353 154.602 284.018 155.65C284.684 156.699 285.016 157.947 285.014 159.395C285.012 160.842 284.677 162.09 284.009 163.137C283.341 164.164 282.388 164.954 281.149 165.505C279.91 166.056 278.415 166.33 276.662 166.328L270.433 166.32L271.721 165.008L271.712 172.408L268.854 172.405ZM282.227 172.421L277.149 165.157L280.207 165.161L285.341 172.425L282.227 172.421ZM271.72 165.293L270.436 163.892L276.579 163.899C278.408 163.901 279.79 163.512 280.724 162.733C281.677 161.934 282.155 160.82 282.157 159.391C282.158 157.963 281.684 156.857 280.732 156.075C279.8 155.293 278.419 154.901 276.59 154.899L270.447 154.891L271.735 153.464L271.72 165.293ZM289.615 172.43L289.639 152.429L292.496 152.432L292.475 169.947L303.304 169.96L303.301 172.446L289.615 172.43ZM306.58 172.45L306.604 152.449L315.033 152.459C317.167 152.462 319.042 152.883 320.661 153.723C322.298 154.563 323.563 155.736 324.456 157.242C325.369 158.748 325.824 160.492 325.822 162.473C325.819 164.454 325.36 166.196 324.444 167.7C323.547 169.204 322.279 170.374 320.639 171.21C319.019 172.046 317.142 172.463 315.009 172.46L306.58 172.45ZM309.44 169.968L314.841 169.974C316.498 169.976 317.927 169.664 319.128 169.037C320.347 168.409 321.291 167.534 321.96 166.411C322.628 165.269 322.963 163.955 322.964 162.469C322.966 160.965 322.634 159.65 321.969 158.525C321.304 157.4 320.362 156.523 319.144 155.893C317.944 155.263 316.516 154.947 314.859 154.945L309.458 154.938L309.44 169.968ZM337.86 172.488L337.884 152.487L340.227 152.49L353.436 168.935L352.208 168.934L352.227 152.504L355.085 152.508L355.061 172.509L352.718 172.506L339.508 156.06L340.737 156.062L340.717 172.492L337.86 172.488ZM363.661 161.147L373.948 161.16L373.945 163.588L363.658 163.576L363.661 161.147ZM363.908 170.034L375.565 170.048L375.562 172.534L361.047 172.516L361.072 152.515L375.187 152.532L375.184 155.018L363.926 155.004L363.908 170.034ZM384.51 172.545L377.848 152.535L380.791 152.539L386.912 171.004L385.427 171.003L391.821 152.552L394.449 152.555L400.656 171.021L399.227 171.019L405.479 152.569L408.193 152.572L401.483 172.565L398.483 172.561L392.674 155.439L393.446 155.44L387.568 172.548L384.51 172.545ZM417.493 172.813C415.969 172.811 414.512 172.581 413.122 172.122C411.732 171.644 410.637 171.033 409.838 170.289L410.898 168.062C411.659 168.73 412.63 169.283 413.811 169.723C414.991 170.162 416.219 170.383 417.496 170.384C418.658 170.386 419.601 170.253 420.325 169.988C421.049 169.722 421.583 169.361 421.926 168.904C422.27 168.428 422.442 167.895 422.443 167.304C422.443 166.619 422.216 166.066 421.759 165.646C421.321 165.227 420.741 164.893 420.017 164.644C419.313 164.377 418.532 164.147 417.675 163.956C416.818 163.764 415.952 163.544 415.076 163.295C414.219 163.027 413.429 162.693 412.705 162.292C412.001 161.891 411.43 161.357 410.993 160.69C410.555 160.004 410.337 159.127 410.339 158.061C410.34 157.032 410.608 156.089 411.142 155.233C411.696 154.357 412.535 153.663 413.659 153.15C414.803 152.618 416.251 152.353 418.003 152.355C419.165 152.357 420.318 152.51 421.46 152.817C422.603 153.123 423.593 153.562 424.43 154.135L423.484 156.419C422.628 155.847 421.724 155.436 420.771 155.187C419.819 154.92 418.896 154.785 418 154.784C416.876 154.783 415.952 154.924 415.228 155.209C414.504 155.494 413.97 155.874 413.627 156.35C413.302 156.826 413.14 157.359 413.139 157.95C413.138 158.654 413.357 159.217 413.794 159.636C414.251 160.056 414.831 160.39 415.536 160.638C416.26 160.887 417.05 161.117 417.907 161.327C418.764 161.519 419.621 161.739 420.477 161.987C421.353 162.236 422.144 162.561 422.848 162.962C423.571 163.363 424.152 163.897 424.589 164.564C425.026 165.231 425.244 166.089 425.243 167.136C425.242 168.146 424.964 169.088 424.411 169.964C423.857 170.821 422.999 171.515 421.837 172.047C420.693 172.56 419.245 172.815 417.493 172.813Z" fill="#2D3A21"/>
<path id="Vector_67" d="M402.12 136.655L402.113 142.505L432.553 142.542L432.56 136.692L402.12 136.655Z" fill="#2D3A21"/>
</g>
</g>
</g>
<g id="Group_17">
<g id="Group_18">
<path id="Vector_68" d="M550.03 423.41H453.27C445 423.41 438.3 416.71 438.3 408.44V207.63C438.3 199.36 445 192.66 453.27 192.66H550.03C558.3 192.66 565 199.36 565 207.63V408.44C565 416.71 558.3 423.41 550.03 423.41Z" fill="#2D3A21"/>
<path id="Vector_69" d="M550.03 423.41H453.27C445 423.41 438.3 416.71 438.3 408.44V207.63C438.3 199.36 445 192.66 453.27 192.66H550.03C558.3 192.66 565 199.36 565 207.63V408.44C565 416.71 558.3 423.41 550.03 423.41Z" fill="#373449"/>
<path id="Vector_70" opacity="0.03" d="M546.82 420H455.18C447.35 420 441 413.49 441 405.47V210.53C441 202.5 447.35 196 455.18 196H546.82C554.65 196 561 202.51 561 210.53V405.47C561 413.49 554.65 420 546.82 420Z" fill="#ECF1F7"/>
<path id="Vector_71" d="M548.14 418.02H455.15C449.56 418.02 445.03 413.49 445.03 407.9V209.24C445.03 203.65 449.56 199.12 455.15 199.12H548.14C553.73 199.12 558.26 203.65 558.26 209.24V407.9C558.26 413.49 553.73 418.02 548.14 418.02Z" fill="white"/>
<path id="Vector_72" d="M557.18 205.6C557.18 204.29 556.64 202.9 555.19 201.99C553.37 200.22 550.89 199.13 548.15 199.13H455.16C451.27 199.13 447.89 201.33 446.2 204.55C446.15 204.89 446.12 205.24 446.12 205.6H557.18V205.6Z" fill="#FFA23B"/>
<g id="Group_19">
<path id="Vector_73" d="M541.57 202.9C541.57 203.5 541.09 203.98 540.49 203.98C539.89 203.98 539.41 203.5 539.41 202.9C539.41 202.3 539.89 201.82 540.49 201.82C541.09 201.82 541.57 202.3 541.57 202.9Z" fill="white"/>
<path id="Vector_74" d="M545.89 202.9C545.89 203.5 545.41 203.98 544.81 203.98C544.21 203.98 543.73 203.5 543.73 202.9C543.73 202.3 544.21 201.82 544.81 201.82C545.4 201.82 545.89 202.3 545.89 202.9Z" fill="white"/>
<path id="Vector_75" d="M550.2 202.9C550.2 203.5 549.72 203.98 549.12 203.98C548.52 203.98 548.04 203.5 548.04 202.9C548.04 202.3 548.52 201.82 549.12 201.82C549.72 201.82 550.2 202.3 550.2 202.9Z" fill="white"/>
</g>
<path id="Vector_76" d="M480.63 199.05L487.13 204.55C487.8 205.22 488.71 205.6 489.66 205.6H514.38C515.55 205.6 516.65 205.09 517.41 204.21L522.69 199.06H480.63V199.05Z" fill="#373449"/>
<path id="Vector_77" d="M480.63 199.05L487.13 204.55C487.8 205.22 488.71 205.6 489.66 205.6H514.38C515.55 205.6 516.65 205.09 517.41 204.21L522.69 199.06H480.63V199.05Z" fill="#373449"/>
<g id="Group_20">
<path id="Vector_78" opacity="0.36" d="M504.57 325.47H458.49C457.5 325.47 456.69 325.01 456.69 324.44V278.55C456.69 277.98 457.5 277.52 458.49 277.52H504.57C505.56 277.52 506.37 277.98 506.37 278.55V324.44C506.37 325.01 505.56 325.47 504.57 325.47Z" fill="#FFA23B"/>
<path id="Vector_79" opacity="0.89" d="M547.21 352.61H456.09C455.69 352.61 455.37 352.34 455.37 352.01V335.96C455.37 335.63 455.69 335.36 456.09 335.36H547.21C547.61 335.36 547.93 335.63 547.93 335.96V352C547.93 352.34 547.61 352.61 547.21 352.61Z" fill="#2D3A21"/>
<g id="Group_21">
<path id="NEWS TODAY" d="M474.836 232.532L474.852 219.08L476.428 219.081L485.313 230.142L484.486 230.141L484.5 219.091L486.422 219.094L486.405 232.546L484.829 232.544L475.945 221.483L476.771 221.484L476.758 232.534L474.836 232.532ZM492.19 224.904L499.108 224.913L499.106 226.546L492.188 226.538L492.19 224.904ZM492.356 230.881L500.197 230.891L500.195 232.563L490.432 232.551L490.448 219.098L499.942 219.11L499.94 220.782L492.368 220.773L492.356 230.881ZM506.213 232.57L501.732 219.112L503.711 219.114L507.828 231.534L506.829 231.533L511.13 219.123L512.898 219.126L517.072 231.545L516.111 231.544L520.316 219.135L522.141 219.137L517.628 232.584L515.61 232.581L511.704 221.065L512.223 221.066L508.269 232.572L506.213 232.57ZM528.396 232.751C527.371 232.749 526.391 232.594 525.456 232.286C524.522 231.964 523.785 231.553 523.248 231.053L523.961 229.555C524.473 230.004 525.126 230.376 525.92 230.672C526.714 230.968 527.54 231.116 528.398 231.117C529.18 231.118 529.814 231.029 530.301 230.85C530.788 230.671 531.147 230.429 531.378 230.121C531.609 229.801 531.725 229.443 531.725 229.046C531.726 228.584 531.573 228.213 531.265 227.93C530.971 227.648 530.581 227.423 530.094 227.256C529.62 227.076 529.095 226.922 528.519 226.793C527.942 226.664 527.36 226.516 526.77 226.349C526.194 226.169 525.663 225.944 525.176 225.674C524.702 225.405 524.318 225.046 524.024 224.597C523.73 224.135 523.584 223.546 523.584 222.828C523.585 222.136 523.765 221.502 524.125 220.926C524.497 220.338 525.061 219.871 525.818 219.526C526.587 219.168 527.561 218.99 528.74 218.991C529.521 218.992 530.296 219.095 531.064 219.301C531.833 219.507 532.499 219.803 533.062 220.188L532.426 221.724C531.85 221.339 531.242 221.063 530.601 220.896C529.961 220.716 529.34 220.625 528.738 220.624C527.982 220.624 527.36 220.719 526.873 220.911C526.386 221.102 526.027 221.358 525.796 221.678C525.578 221.998 525.468 222.357 525.468 222.754C525.467 223.228 525.614 223.606 525.909 223.888C526.216 224.17 526.606 224.395 527.08 224.562C527.567 224.729 528.098 224.884 528.675 225.025C529.251 225.154 529.827 225.302 530.404 225.469C530.993 225.637 531.524 225.855 531.998 226.125C532.484 226.394 532.875 226.754 533.169 227.202C533.463 227.651 533.61 228.228 533.609 228.932C533.608 229.612 533.421 230.245 533.049 230.834C532.677 231.41 532.1 231.877 531.318 232.235C530.549 232.58 529.575 232.752 528.396 232.751ZM477.48 255.535L477.494 243.755L472.882 243.749L472.884 242.077L484.011 242.091L484.009 243.763L479.396 243.757L479.382 255.538L477.48 255.535ZM491.973 255.706C490.948 255.705 489.993 255.531 489.11 255.184C488.239 254.837 487.484 254.356 486.844 253.74C486.204 253.112 485.705 252.381 485.347 251.547C484.99 250.714 484.811 249.804 484.813 248.818C484.814 247.831 484.994 246.922 485.354 246.09C485.714 245.257 486.214 244.534 486.856 243.92C487.497 243.293 488.253 242.807 489.125 242.462C489.997 242.117 490.951 241.945 491.989 241.947C493.014 241.948 493.956 242.122 494.814 242.469C495.684 242.803 496.44 243.284 497.08 243.913C497.732 244.529 498.231 245.253 498.576 246.086C498.934 246.92 499.112 247.836 499.111 248.835C499.109 249.834 498.929 250.75 498.569 251.583C498.222 252.415 497.722 253.145 497.068 253.772C496.426 254.386 495.67 254.865 494.798 255.21C493.939 255.542 492.997 255.708 491.973 255.706ZM491.975 253.996C492.718 253.997 493.403 253.87 494.031 253.614C494.672 253.359 495.224 253.001 495.685 252.54C496.16 252.067 496.526 251.516 496.783 250.889C497.053 250.261 497.188 249.576 497.189 248.833C497.19 248.09 497.056 247.404 496.788 246.776C496.532 246.148 496.168 245.603 495.694 245.141C495.234 244.667 494.683 244.301 494.043 244.044C493.415 243.787 492.73 243.658 491.987 243.657C491.231 243.656 490.533 243.783 489.892 244.039C489.264 244.294 488.712 244.659 488.238 245.132C487.763 245.593 487.391 246.137 487.121 246.764C486.864 247.392 486.735 248.077 486.734 248.82C486.733 249.563 486.861 250.249 487.116 250.877C487.385 251.505 487.755 252.056 488.229 252.531C488.702 252.993 489.253 253.352 489.88 253.609C490.521 253.866 491.219 253.995 491.975 253.996ZM502.04 255.565L502.056 242.112L507.725 242.119C509.16 242.121 510.422 242.404 511.51 242.969C512.611 243.535 513.462 244.324 514.063 245.336C514.677 246.349 514.983 247.522 514.982 248.854C514.98 250.187 514.671 251.359 514.055 252.37C513.451 253.382 512.599 254.168 511.496 254.731C510.406 255.293 509.144 255.574 507.709 255.572L502.04 255.565ZM503.964 253.895L507.596 253.9C508.71 253.901 509.672 253.691 510.479 253.269C511.3 252.847 511.935 252.259 512.384 251.503C512.833 250.735 513.059 249.851 513.06 248.852C513.061 247.84 512.838 246.956 512.39 246.199C511.943 245.443 511.309 244.853 510.49 244.429C509.683 244.005 508.723 243.792 507.608 243.791L503.976 243.787L503.964 253.895ZM515.692 255.581L521.801 242.136L523.703 242.139L529.798 255.599L527.78 255.596L522.357 243.213L523.125 243.214L517.672 255.584L515.692 255.581ZM518.291 252.221L518.811 250.685L526.383 250.694L526.939 252.232L518.291 252.221ZM534.246 255.604L534.252 250.454L534.692 251.646L528.919 242.145L530.976 242.147L535.828 250.167L534.714 250.166L539.605 242.158L541.507 242.16L535.73 251.647L536.154 250.456L536.148 255.606L534.246 255.604Z" fill="#2D3A21"/>
<path id="Vector_80" d="M548.91 263.84H454.4V266.58H548.91V263.84Z" fill="#FFA23B"/>
<path id="Vector_81" d="M461.17 218.64H455.69V256.99H461.17V218.64Z" fill="#FFA23B"/>
<path id="Vector_82" d="M466.65 218.64H461.17V256.99H466.65V218.64Z" fill="#2D3A21"/>
</g>
<g id="Group_22">
<path id="Vector_83" opacity="0.36" d="M548.83 280.27H509.11V284.13H548.83V280.27Z" fill="#2D3A21"/>
<path id="Vector_84" opacity="0.36" d="M548.83 287.99H509.11V291.85H548.83V287.99Z" fill="#2D3A21"/>
<path id="Vector_85" opacity="0.36" d="M548.83 295.71H509.11V299.57H548.83V295.71Z" fill="#2D3A21"/>
<path id="Vector_86" opacity="0.36" d="M514.59 361.09H455.69V364.95H514.59V361.09Z" fill="#2D3A21"/>
<path id="Vector_87" opacity="0.36" d="M514.59 368.81H455.69V372.67H514.59V368.81Z" fill="#2D3A21"/>
<path id="Vector_88" opacity="0.36" d="M514.59 376.53H455.69V380.39H514.59V376.53Z" fill="#2D3A21"/>
<path id="Vector_89" opacity="0.36" d="M548.83 303.43H509.11V307.29H548.83V303.43Z" fill="#2D3A21"/>
<path id="Vector_90" opacity="0.36" d="M548.83 311.15H509.11V315.01H548.83V311.15Z" fill="#2D3A21"/>
<path id="Vector_91" opacity="0.36" d="M548.83 318.87H509.11V322.73H548.83V318.87Z" fill="#2D3A21"/>
</g>
<g id="Group_23">
<path id="Vector_92" opacity="0.89" d="M455.598 388.421L455.579 404.141L484.309 404.175L484.328 388.455L455.598 388.421Z" fill="#2D3A21"/>
<path id="Vector_93" opacity="0.89" d="M487.971 388.465L487.952 404.185L516.682 404.22L516.701 388.5L487.971 388.465Z" fill="#2D3A21"/>
<path id="Vector_94" opacity="0.89" d="M520.113 388.504L520.094 404.224L548.824 404.259L548.843 388.539L520.113 388.504Z" fill="#FFA23B"/>
</g>
<path id="Vector_95" opacity="0.36" d="M547.46 361.09H517.33V380.27H547.46V361.09Z" fill="#FFA23B"/>
<g id="Group_24">
<path id="Vector_96" opacity="0.89" d="M481.29 318.29C471.8 318.29 464.08 310.57 464.08 301.08C464.08 300.48 464.11 299.88 464.17 299.28L464.22 298.83H480.04C481.38 298.83 482.48 297.77 482.5 296.47V296.31C482.43 295.09 481.38 294.13 480.11 294.13H476.6C475.75 294.13 475.04 293.46 475.02 292.64C475.01 292.22 475.16 291.82 475.45 291.52C475.74 291.22 476.13 291.05 476.55 291.05H483.22C483.36 291.05 487.23 291.12 487.23 291.12C487.88 291.12 488.49 290.86 488.94 290.39C489.39 289.92 489.63 289.3 489.61 288.64C489.57 287.37 488.46 286.34 487.15 286.34H472.1L474.22 285.38C476.45 284.38 478.83 283.87 481.29 283.87C490.78 283.87 498.5 291.59 498.5 301.08C498.5 302.31 498.37 303.55 498.11 304.74L498.03 305.13H480.53C479.14 305.13 478.01 306.26 478.01 307.65C478.01 309.04 479.14 310.17 480.53 310.17H484.42L484.27 310.79C484.22 310.98 484.2 311.18 484.2 311.37C484.2 312.76 485.33 313.89 486.72 313.89H492.9L491.72 314.79C488.69 317.08 485.09 318.29 481.29 318.29ZM465.13 299.83C465.1 300.25 465.08 300.67 465.08 301.08C465.08 310.02 472.35 317.29 481.29 317.29C484.33 317.29 487.24 316.46 489.79 314.89H486.71C484.77 314.89 483.19 313.31 483.19 311.37C483.19 311.3 483.19 311.24 483.2 311.17H480.52C478.58 311.17 477 309.59 477 307.65C477 305.71 478.58 304.13 480.52 304.13H497.21C497.4 303.13 497.5 302.1 497.5 301.07C497.5 295.53 494.7 290.63 490.45 287.7C490.54 287.99 490.6 288.29 490.61 288.6C490.64 289.53 490.31 290.41 489.66 291.08C489.01 291.75 488.15 292.12 487.22 292.12C487.21 292.12 483.37 292.05 483.22 292.05H476.55C476.4 292.05 476.27 292.11 476.16 292.21C476.06 292.32 476 292.46 476.01 292.6C476.02 292.89 476.28 293.12 476.59 293.12H480.1C481.91 293.12 483.39 294.5 483.49 296.25C483.49 296.33 483.5 296.4 483.49 296.48C483.47 298.33 481.92 299.83 480.03 299.83H465.13V299.83ZM477.39 285.34H485.17C482.69 284.73 479.93 284.72 477.39 285.34Z" fill="white"/>
<path id="Vector_97" opacity="0.89" d="M491.57 314.89H486.71C484.77 314.89 483.19 313.31 483.19 311.37C483.19 311.3 483.19 311.24 483.2 311.17H480.52C478.58 311.17 477 309.59 477 307.65C477 305.71 478.58 304.13 480.52 304.13H498.24L498.11 304.74C497.24 308.73 494.97 312.29 491.7 314.78L491.57 314.89ZM480.52 305.14C479.13 305.14 478 306.27 478 307.66C478 309.05 479.13 310.18 480.52 310.18H484.41L484.26 310.8C484.21 310.99 484.19 311.19 484.19 311.38C484.19 312.77 485.32 313.9 486.71 313.9H491.23C494.07 311.69 496.1 308.61 496.99 305.15H480.52V305.14Z" fill="white"/>
<path id="Vector_98" opacity="0.89" d="M480.04 299.83H464.12L464.18 299.28C464.81 293.22 468.66 287.9 474.23 285.39L474.44 285.35H487.16C489 285.35 490.55 286.82 490.62 288.62C490.65 289.55 490.32 290.43 489.67 291.1C489.02 291.77 488.16 292.14 487.23 292.14C487.22 292.14 483.38 292.07 483.23 292.07H476.56C476.41 292.07 476.28 292.13 476.17 292.23C476.07 292.34 476.01 292.48 476.02 292.62C476.03 292.91 476.29 293.14 476.6 293.14H480.11C481.92 293.14 483.4 294.52 483.5 296.27C483.5 296.35 483.51 296.42 483.5 296.5C483.47 298.33 481.92 299.83 480.04 299.83ZM465.24 298.83H480.04C481.38 298.83 482.48 297.77 482.5 296.47V296.31C482.43 295.09 481.38 294.13 480.11 294.13H476.6C475.75 294.13 475.04 293.46 475.02 292.64C475.01 292.22 475.16 291.82 475.45 291.52C475.74 291.22 476.13 291.05 476.55 291.05H483.22C483.36 291.05 487.23 291.12 487.23 291.12C487.88 291.12 488.49 290.86 488.94 290.39C489.39 289.92 489.63 289.3 489.61 288.64C489.57 287.37 488.46 286.34 487.15 286.34H474.54C469.51 288.65 466 293.39 465.24 298.83Z" fill="white"/>
</g>
</g>
</g>
</g>
</g>
<g class="message">
<path id="Vector_99" d="M478.49 84H541.39C545.63 84 549.07 87.44 549.07 91.68V154.58C549.07 158.82 545.63 162.26 541.39 162.26H490.82C489.77 162.26 488.76 162.65 487.99 163.36L477.86 172.57C475.16 175.03 470.82 173.11 470.82 169.45V144.06V128.85V91.68C470.81 87.44 474.25 84 478.49 84Z" fill="#FFA23B"/>
<path id="Vector_100" opacity="0.11" d="M478.49 84H541.39C545.63 84 549.07 87.44 549.07 91.68V154.58C549.07 158.82 545.63 162.26 541.39 162.26H490.82C489.77 162.26 488.76 162.65 487.99 163.36L477.86 172.57C475.16 175.03 470.82 173.11 470.82 169.45V144.06V128.85V91.68C470.81 87.44 474.25 84 478.49 84Z" fill="#373449"/>
<path id="Vector_101" d="M481.53 84H538.35C542.18 84 545.29 87.11 545.29 90.94V147.76C545.29 151.59 542.18 154.7 538.35 154.7H492.66C491.71 154.7 490.8 155.05 490.1 155.69L480.95 164.01C478.51 166.23 474.59 164.5 474.59 161.2V138.26V124.52V90.94C474.59 87.11 477.7 84 481.53 84Z" fill="#FFA23B"/>
<g id="Group_25">
<path id="Vector_102" d="M497.69 131.29L497.66 131.27L497.69 131.3C497.69 131.3 497.69 131.29 497.69 131.29Z" fill="#A8D0FE"/>
<path id="Vector_103" d="M491.24 127.26L493.35 137.78L497.67 131.27L491.24 127.26Z" fill="white"/>
<path id="Vector_104" d="M536.17 104.27L492.17 127.29C491.88 127.44 491.54 127.42 491.28 127.24L491.24 127.26L497.67 131.28L497.7 131.3C497.66 130.98 497.77 130.65 498.06 130.46L536.5 104.12L536.25 104.25C536.22 104.25 536.19 104.26 536.17 104.27Z" fill="white"/>
<path id="Vector_105" opacity="0.18" d="M536.25 104.23C536.22 104.25 536.19 104.26 536.18 104.27L492.18 127.29C491.89 127.44 491.55 127.42 491.29 127.24L491.25 127.26L493.35 137.78L497.67 131.27L497.7 131.29C497.66 130.97 497.77 130.64 498.06 130.45L536.5 104.11L536.25 104.23Z" fill="#2D3A21"/>
<path id="Vector_106" d="M497.69 131.29C497.69 131.29 497.69 131.3 497.69 131.31L500.56 134.59L507.46 141.84C510.36 144.89 515.37 144.27 517.44 140.61L536.48 104.11L498.04 130.45C497.76 130.64 497.65 130.97 497.69 131.29Z" fill="white"/>
<path id="Vector_107" d="M492.17 127.29L536.17 104.27C536.18 104.26 536.21 104.25 536.24 104.23C536.32 104.18 536.39 104.12 536.13 104.18L483.35 114.82C480.87 115.37 480.14 118.56 482.15 120.12L491.21 127.2C491.23 127.22 491.25 127.22 491.28 127.24C491.54 127.41 491.88 127.44 492.17 127.29Z" fill="white"/>
<path id="Vector_108" d="M497.69 131.31L497.67 131.27L493.35 137.78L500.57 134.58L497.69 131.31Z" fill="white"/>
<path id="Vector_109" opacity="0.29" d="M497.69 131.31L497.67 131.27L493.35 137.78L500.57 134.58L497.69 131.31Z" fill="#2D3A21"/>
</g>
</g>
<g class="live">
<path id="Vector_110" d="M267.56 106.42H200.68C199.92 106.42 199.31 105.81 199.31 105.05V83.0901C199.31 82.3301 199.92 81.7201 200.68 81.7201H267.56C268.32 81.7201 268.93 82.3301 268.93 83.0901V105.06C268.93 105.81 268.32 106.42 267.56 106.42Z" fill="#FFA23B"/>
<g id="Group_26">
<path id="LIVE" d="M205.163 102.876V84.2505H207.824V100.561H217.908V102.876H205.163ZM220.961 102.876V84.2505H223.622V102.876H220.961ZM234.391 102.876L226.196 84.2505H229.069L236.599 101.439H234.95L242.533 84.2505H245.194L237.025 102.876H234.391ZM249.99 92.286H259.569V94.5477H249.99V92.286ZM250.23 100.561H261.085V102.876H247.569V84.2505H260.713V86.5654H250.23V100.561Z" fill="white"/>
</g>
</g>
<g class="exclamation">
<path id="Vector_111" d="M143.07 276.21V224C143.07 220.48 145.92 217.63 149.44 217.63H201.66C205.18 217.63 208.03 220.48 208.03 224V265.98C208.03 266.85 208.35 267.69 208.94 268.33L216.58 276.74C218.62 278.99 217.03 282.59 213.99 282.59H192.91H180.3H149.45C145.92 282.59 143.07 279.73 143.07 276.21Z" fill="#FFA23B"/>
<path id="Vector_112" opacity="0.11" d="M143.07 276.21V224C143.07 220.48 145.92 217.63 149.44 217.63H201.66C205.18 217.63 208.03 220.48 208.03 224V265.98C208.03 266.85 208.35 267.69 208.94 268.33L216.58 276.74C218.62 278.99 217.03 282.59 213.99 282.59H192.91H180.3H149.45C145.92 282.59 143.07 279.73 143.07 276.21Z" fill="#373449"/>
<path id="Vector_113" d="M143.07 275.27V228.35C143.07 225.19 145.75 222.62 149.06 222.62H198.12C201.43 222.62 204.11 225.18 204.11 228.35V266.08C204.11 266.86 204.41 267.61 204.96 268.19L212.14 275.75C214.06 277.77 212.56 281 209.71 281H189.91H178.05H149.06C145.75 281 143.07 278.44 143.07 275.27Z" fill="#FFA23B"/>
<g id="Group_27">
<g id="Group_28">
<path id="Vector_114" d="M168.81 264.39C168.81 262.86 169.29 261.59 170.24 260.6C171.2 259.61 172.51 259.11 174.2 259.11C175.88 259.11 177.2 259.61 178.16 260.6C179.11 261.59 179.59 262.86 179.59 264.39C179.59 265.92 179.11 267.19 178.16 268.18C177.2 269.17 175.89 269.67 174.2 269.67C172.52 269.67 171.2 269.17 170.24 268.18C169.29 267.19 168.81 265.93 168.81 264.39ZM179.14 236.1C179.14 236.96 179.12 238.2 179.08 239.83C179.04 241.46 178.97 243.22 178.86 245.1C178.75 246.99 178.6 248.88 178.41 250.77C178.22 252.66 178 254.3 177.74 255.68C177.59 255.79 177.37 255.9 177.07 256.02C176.77 256.13 176.45 256.22 176.12 256.3C175.78 256.37 175.45 256.43 175.11 256.47C174.77 256.51 174.47 256.52 174.21 256.52C173.12 256.52 172.22 256.35 171.49 256.02C170.76 255.68 170.3 255.03 170.11 254.06C169.92 253.2 169.76 251.89 169.63 250.13C169.5 248.37 169.38 246.46 169.27 244.4C169.16 242.34 169.07 240.3 169.02 238.28C168.99 237.3 168.97 236.4 168.96 235.56C168.93 233.99 169.94 232.54 171.46 232.14C171.47 232.14 171.48 232.14 171.49 232.13C172.44 231.89 173.39 231.77 174.32 231.77C175.85 231.77 177.04 232.13 177.89 232.84C178.72 233.56 179.14 234.64 179.14 236.1Z" fill="white"/>
</g>
</g>
<g id="Group_29">
<g id="Group_30">
<path id="Vector_115" opacity="0.1" d="M174.08 259.12C175.76 259.12 177.08 259.62 178.04 260.61C179 261.6 179.47 262.87 179.47 264.4C179.47 265.93 178.99 267.2 178.04 268.19C177.08 269.18 175.77 269.68 174.08 269.68C173.24 269.68 176 269.01 176 264.01C176 259.01 173.23 259.12 174.08 259.12ZM179.02 236.1C179.02 236.96 179 238.2 178.96 239.83C178.92 241.46 178.85 243.22 178.74 245.1C178.63 246.99 178.48 248.88 178.29 250.77C178.1 252.66 177.88 254.3 177.62 255.68C177.47 255.79 177.25 255.9 176.95 256.02C176.65 256.13 176.33 256.22 176 256.3C175.66 256.37 175.33 256.43 174.99 256.47C174.65 256.51 174.35 256.52 174.09 256.52C173.84 256.52 175.74 250.85 175.76 244.93C175.78 238.49 173.94 231.76 174.2 231.76C175.73 231.76 176.92 232.12 177.77 232.83C178.59 233.56 179.02 234.64 179.02 236.1Z" fill="#2D3A21"/>
</g>
</g>
</g>
</g>
</svg>
